<svg xmlns="http://www.w3.org/2000/svg" width="14" height="17" viewBox="0 0 14 17"> <path fill="#000" fill-rule="nonzero" stroke="#000" stroke-width=".5" d="M7.28 1.061c-1.69 0-3.06 1.433-3.06 3.202v.169H2.903a.329.329 0 0 0-.287.284l-1.61 10.787a.348.348 0 0 0 .073.27c.06.076.15.12.244.12h11.916a.316.316 0 0 0 .244-.12.348.348 0 0 0 .073-.27l-1.61-10.787a.327.327 0 0 0-.317-.284H10.34v-.169c0-1.769-1.37-3.202-3.06-3.202zm0 .674c1.344 0 2.416 1.12 2.416 2.528v.169H4.865v-.169c0-1.407 1.072-2.528 2.415-2.528zM3.21 5.106h1.01v.506a.34.34 0 0 0 .16.296.31.31 0 0 0 .325 0 .34.34 0 0 0 .16-.296v-.506h4.83v.506a.34.34 0 0 0 .16.296.31.31 0 0 0 .325 0 .34.34 0 0 0 .16-.296v-.506h1.011l1.51 10.112H1.699L3.21 5.106z"></path> </svg>